# xmcd
#
# Track frame offsets: 
#        150
#        28470
#        67205
#        111002
#        144902
#        185982
#        214934
#        257227
#        287519
#
# Disc length: 4249 seconds
#
# Revision: 3
# Processed by: cddbd v1.5.1PL2 Copyright (c) Steve Scherf et al.
# Submitted via: ExactAudioCopy v0.90b4
#
DISCID=96109709
DTITLE=Without Address band - Fusion
DYEAR=2003
DGENRE=Jazz
TTITLE0=Balloons Of Many Colors
TTITLE1=First Train Blues
TTITLE2=Axelbanty (Aglets)
TTITLE3=Police
TTITLE4=S.P.B.
TTITLE5=A Little Crazy
TTITLE6=Oriental Shock
TTITLE7=We Cannot Play Blues, But Subway Is Clean Here
TTITLE8=My Customer's Rhythm
EXTD=YEAR: 2003
EXTT0=
EXTT1=
EXTT2=
EXTT3=
EXTT4=
EXTT5=
EXTT6=
EXTT7=
EXTT8=
PLAYORDER=
